<svg width="20" height="20" viewBox="0 0 20 20" fill="none" xmlns="http://www.w3.org/2000/svg">
<path d="M16.1738 14.1094C15.8359 13.3105 15.3535 12.5957 14.7383 11.9805C14.123 11.3652 13.4062 10.8828 12.6074 10.5449C12.4082 10.4609 12.2051 10.3867 12.002 10.3223C13.0664 9.64453 13.7754 8.45312 13.7754 7.10156C13.7754 4.99805 12.0645 3.28516 9.95898 3.28516C7.85547 3.28516 6.14258 4.99609 6.14258 7.10156C6.14258 8.4668 6.86328 9.66602 7.94336 10.3398C7.75586 10.4004 7.57227 10.4688 7.39062 10.5449C6.5918 10.8828 5.87695 11.3652 5.26172 11.9805C4.64648 12.5957 4.16406 13.3125 3.82617 14.1094C3.53461 14.7984 3.36259 15.5227 3.3135 16.2698C3.29724 16.5174 3.49995 16.7188 3.74805 16.7188C3.99614 16.7188 4.19545 16.5169 4.21448 16.2696C4.44457 13.2794 6.95191 10.916 10 10.916C13.0481 10.916 15.5554 13.2794 15.7855 16.2696C15.8045 16.5169 16.0039 16.7188 16.252 16.7188C16.5 16.7188 16.7028 16.5174 16.6865 16.2698C16.6374 15.5227 16.4654 14.7984 16.1738 14.1094ZM7.04297 7.09961C7.04297 5.49023 8.35156 4.18164 9.96094 4.18164C11.5703 4.18164 12.8789 5.49023 12.8789 7.09961C12.8789 8.70898 11.5703 10.0176 9.96094 10.0176C8.35156 10.0156 7.04297 8.70703 7.04297 7.09961Z" fill="white"/>
</svg>
