<svg width="20" height="20" viewBox="0 0 20 20" fill="none" xmlns="http://www.w3.org/2000/svg">
<path d="M13.9609 8.29102V4.75586C13.9609 3.27148 12.752 2.0625 11.2676 2.0625H8.70312C7.21875 2.0625 6.00977 3.27148 6.00977 4.75586V8.29102H4.29883C3.74654 8.29102 3.29883 8.73873 3.29883 9.29102V16.9355C3.29883 17.4878 3.74654 17.9355 4.29883 17.9355H15.6992C16.2515 17.9355 16.6992 17.4878 16.6992 16.9355V9.29102C16.6992 8.73873 16.2515 8.29102 15.6992 8.29102H13.9609ZM6.9082 4.75781C6.9082 3.76758 7.71289 2.96289 8.70312 2.96289H11.2676C12.2578 2.96289 13.0625 3.76758 13.0625 4.75781V8.29297H6.9082V4.75781ZM15.8027 17.0371H4.69727C4.42112 17.0371 4.19727 16.8133 4.19727 16.5371V9.68945C4.19727 9.41331 4.42112 9.18945 4.69727 9.18945H15.3008C15.5769 9.18945 15.8008 9.41331 15.8008 9.68945V17.0352C15.8008 17.0362 15.8017 17.0371 15.8027 17.0371Z" fill="white"/>
<path d="M9.55078 14.125V15.7832C9.55078 16.0313 9.7519 16.2324 10 16.2324C10.2481 16.2324 10.4492 16.0313 10.4492 15.7832V14.123C11.168 13.9258 11.6953 13.2656 11.6953 12.4863C11.6953 11.5508 10.9336 10.7891 9.99805 10.7891C9.0625 10.7891 8.30078 11.5508 8.30078 12.4863C8.30078 13.2676 8.83203 13.9277 9.55078 14.125ZM9.99805 11.6875C10.4395 11.6875 10.7969 12.0469 10.7969 12.4863C10.7969 12.9258 10.4375 13.2852 9.99805 13.2852C9.55664 13.2852 9.19922 12.9258 9.19922 12.4863C9.19922 12.0469 9.55664 11.6875 9.99805 11.6875Z" fill="white"/>
</svg>
