<svg width="20" height="20" viewBox="0 0 20 20" fill="none" xmlns="http://www.w3.org/2000/svg">
<path d="M5.625 7.50033V6.04199C5.625 3.62553 7.58333 1.66699 10 1.66699C12.4167 1.66699 14.375 3.62449 14.375 6.04199V7.50033H14.5835C15.8485 7.50033 16.875 8.52762 16.875 9.79199V16.042C16.875 17.308 15.8502 18.3337 14.5835 18.3337H5.41667C4.15146 18.3337 3.125 17.3064 3.125 16.042V9.79199C3.125 8.52595 4.14979 7.50033 5.41646 7.50033H5.625ZM6.875 7.50033H13.125V6.04199C13.125 4.31491 11.7265 2.91699 10 2.91699C8.27375 2.91699 6.875 4.31595 6.875 6.04199V7.50033ZM4.375 9.79199V16.042C4.375 16.6162 4.84208 17.0837 5.41646 17.0837H14.5833C14.7202 17.0838 14.8557 17.057 14.9822 17.0047C15.1086 16.9524 15.2235 16.8757 15.3203 16.7789C15.417 16.6822 15.4938 16.5673 15.546 16.4408C15.5983 16.3144 15.6252 16.1788 15.625 16.042V9.79199C15.625 9.21783 15.1579 8.75033 14.5835 8.75033H5.41667C5.27983 8.75016 5.1443 8.77699 5.01784 8.82928C4.89139 8.88157 4.77649 8.95829 4.67973 9.05506C4.58297 9.15182 4.50625 9.26671 4.45396 9.39317C4.40167 9.51962 4.37484 9.65515 4.375 9.79199Z" fill="white"/>
</svg>
