<svg width="20" height="20" viewBox="0 0 20 20" fill="none" xmlns="http://www.w3.org/2000/svg">
<path d="M8.71626 11.1997C8.10133 10.6153 7.56364 9.95462 7.11625 9.23384C8.44021 8.63863 9.30646 7.40842 9.30646 5.91759C9.30625 3.8003 7.59688 2.08301 5.48646 2.08301C3.32146 2.08301 1.66667 3.68613 1.66667 5.91759C1.66667 9.00842 3.27917 12.3347 5.585 14.5047C7.53834 16.343 10.6433 17.6636 13.6604 17.9143C13.6767 17.9157 13.6931 17.9163 13.7096 17.9163H14.5135C14.6717 17.9163 14.8233 17.8535 14.9351 17.7417C15.0469 17.6299 15.1097 17.4783 15.1097 17.3202C15.1097 17.1621 15.0469 17.0105 14.9351 16.8987C14.8233 16.7869 14.6717 16.724 14.5135 16.724H13.7348C10.9873 16.4901 8.14834 15.2801 6.40167 13.6363C4.32334 11.6801 2.85855 8.65905 2.85855 5.91759C2.85855 4.35301 3.97146 3.2753 5.48646 3.2753C6.9373 3.2753 8.11438 4.45759 8.11438 5.91759C8.11438 7.09551 7.31563 8.02676 6.1025 8.32676C6.01502 8.34836 5.93357 8.38951 5.86428 8.44712C5.79499 8.50473 5.73967 8.57731 5.70247 8.65938C5.66527 8.74146 5.64717 8.8309 5.64952 8.92099C5.65187 9.01107 5.67462 9.09944 5.71605 9.17947C6.25459 10.2207 7.00584 11.219 7.89521 12.064C8.89646 13.0151 10.0425 13.7459 11.2556 14.1765C11.3382 14.2059 11.4263 14.2167 11.5135 14.2081C11.6007 14.1995 11.685 14.1718 11.7603 14.1269C11.8356 14.082 11.9001 14.0211 11.9491 13.9484C11.9981 13.8758 12.0305 13.7932 12.044 13.7065C12.2481 12.3961 13.2475 11.4795 14.5135 11.4795C15.9642 11.4795 17.1415 12.662 17.1415 14.1218C17.1415 14.6213 17.004 15.0988 16.7479 15.5134C16.67 15.6477 16.6475 15.8072 16.6853 15.9578C16.7231 16.1084 16.8181 16.2384 16.9503 16.32C17.0824 16.4016 17.2411 16.4285 17.3928 16.3948C17.5444 16.3612 17.6769 16.2697 17.7621 16.1399C18.1366 15.5334 18.3344 14.8345 18.3333 14.1218C18.3333 12.0047 16.6238 10.2872 14.5135 10.2872C12.891 10.2872 11.5602 11.3103 11.0444 12.804C10.2169 12.4222 9.42771 11.8755 8.71626 11.1997Z" fill="white"/>
</svg>
