<svg width="20" height="20" viewBox="0 0 20 20" fill="none" xmlns="http://www.w3.org/2000/svg">
<path d="M14.9965 7.99134C16.9402 8.67676 18.3334 10.5297 18.3334 12.708C18.3334 13.5422 18.1284 14.3482 17.7423 15.0682C17.7073 15.1334 17.6448 15.2426 17.5529 15.3995L17.8384 16.4455C17.9654 16.9122 17.5375 17.3403 17.0709 17.213L16.0231 16.9272L15.9015 16.9988C15.1258 17.4641 14.2379 17.7093 13.3334 17.708C11.81 17.708 10.4459 17.0268 9.52857 15.9524C9.16281 16.0117 8.79286 16.0415 8.42232 16.0413C7.18523 16.0413 5.99523 15.7122 4.95607 15.098C4.92023 15.0768 4.83086 15.0251 4.68982 14.9438L3.11669 15.3668C2.64961 15.4924 2.22294 15.0626 2.35211 14.5965L2.77773 13.0584C2.67127 12.8823 2.56772 12.7044 2.46711 12.5249C1.94067 11.5584 1.66544 10.4752 1.66669 9.37467C1.66669 5.69072 4.69336 2.70801 8.42232 2.70801C11.5456 2.70801 14.2423 4.81759 14.9813 7.77238C14.9998 7.84592 15.0042 7.91988 14.9965 7.99113V7.99134ZM13.6663 7.71884C12.9469 5.50822 10.8434 3.95801 8.42232 3.95801C5.37961 3.95801 2.91669 6.38509 2.91669 9.37467C2.91669 10.2784 3.14127 11.1488 3.56502 11.9274C3.62127 12.0307 3.76377 12.2732 3.98732 12.6451C4.03098 12.7177 4.0594 12.7985 4.07086 12.8825C4.08232 12.9665 4.07658 13.0519 4.05398 13.1336L3.84857 13.8757L4.61482 13.6697C4.77451 13.6267 4.94472 13.6488 5.08815 13.7311C5.3669 13.8911 5.53294 13.987 5.59211 14.022C6.44935 14.5278 7.42696 14.7936 8.42232 14.7913C8.54252 14.7913 8.66232 14.7876 8.78148 14.7801C8.48517 14.1295 8.33233 13.4229 8.33336 12.708C8.33336 9.94655 10.5719 7.70801 13.3334 7.70801C13.4452 7.70801 13.5563 7.71176 13.6663 7.71884ZM16.2777 15.4738C16.2557 15.3931 16.2501 15.3087 16.2613 15.2258C16.2725 15.1428 16.3003 15.063 16.3429 14.9909C16.4448 14.8213 16.544 14.6501 16.6406 14.4774C16.9324 13.9333 17.0845 13.3253 17.0834 12.708C17.0834 10.637 15.4044 8.95801 13.3334 8.95801C11.2623 8.95801 9.58336 10.637 9.58336 12.708C9.58336 14.779 11.2623 16.458 13.3334 16.458C14.0115 16.4593 14.6771 16.2756 15.2586 15.9268C15.3017 15.9009 15.4204 15.8315 15.6202 15.7151C15.6919 15.6734 15.7712 15.6464 15.8534 15.6356C15.9356 15.6248 16.0192 15.6305 16.0992 15.6524L16.3446 15.7193L16.2777 15.4738ZM6.45836 8.33301C6.23734 8.33301 6.02538 8.24521 5.8691 8.08893C5.71282 7.93265 5.62502 7.72069 5.62502 7.49967C5.62502 7.27866 5.71282 7.0667 5.8691 6.91042C6.02538 6.75414 6.23734 6.66634 6.45836 6.66634C6.67937 6.66634 6.89133 6.75414 7.04761 6.91042C7.20389 7.0667 7.29169 7.27866 7.29169 7.49967C7.29169 7.72069 7.20389 7.93265 7.04761 8.08893C6.89133 8.24521 6.67937 8.33301 6.45836 8.33301ZM10.2084 8.33301C9.98734 8.33301 9.77538 8.24521 9.6191 8.08893C9.46282 7.93265 9.37502 7.72069 9.37502 7.49967C9.37502 7.27866 9.46282 7.0667 9.6191 6.91042C9.77538 6.75414 9.98734 6.66634 10.2084 6.66634C10.4294 6.66634 10.6413 6.75414 10.7976 6.91042C10.9539 7.0667 11.0417 7.27866 11.0417 7.49967C11.0417 7.72069 10.9539 7.93265 10.7976 8.08893C10.6413 8.24521 10.4294 8.33301 10.2084 8.33301ZM11.875 12.2913C11.7093 12.2913 11.5503 12.2255 11.4331 12.1083C11.3159 11.9911 11.25 11.8321 11.25 11.6663C11.25 11.5006 11.3159 11.3416 11.4331 11.2244C11.5503 11.1072 11.7093 11.0413 11.875 11.0413C12.0408 11.0413 12.1998 11.1072 12.317 11.2244C12.4342 11.3416 12.5 11.5006 12.5 11.6663C12.5 11.8321 12.4342 11.9911 12.317 12.1083C12.1998 12.2255 12.0408 12.2913 11.875 12.2913ZM14.7917 12.2913C14.6259 12.2913 14.467 12.2255 14.3497 12.1083C14.2325 11.9911 14.1667 11.8321 14.1667 11.6663C14.1667 11.5006 14.2325 11.3416 14.3497 11.2244C14.467 11.1072 14.6259 11.0413 14.7917 11.0413C14.9575 11.0413 15.1164 11.1072 15.2336 11.2244C15.3508 11.3416 15.4167 11.5006 15.4167 11.6663C15.4167 11.8321 15.3508 11.9911 15.2336 12.1083C15.1164 12.2255 14.9575 12.2913 14.7917 12.2913Z" fill="white"/>
</svg>
